<?xml version="1.0" encoding="utf-8"?>
<!-- Generator: Adobe Illustrator 24.1.0, SVG Export Plug-In . SVG Version: 6.00 Build 0)  -->
<svg version="1.1" id="Layer_1" xmlns="http://www.w3.org/2000/svg" xmlns:xlink="http://www.w3.org/1999/xlink" x="0px" y="0px"
	 viewBox="0 0 175 42" style="enable-background:new 0 0 175 42;" xml:space="preserve">
<style type="text/css">
	.st0{fill:#646464;}
	.st1{fill:#1F7D3B;}
</style>
<desc>Created with Sketch.</desc>
<g id="Page-1">
	<g id="A4" transform="translate(-404.000000, -668.000000)">
		<g id="Evolve-logo-01-Copy-5" transform="translate(404.000000, 668.000000)">
			<path id="Shape" class="st0" d="M16.9,41c-3,0.1-5.9-0.5-8.6-1.7c-2.4-1-4.5-2.7-6-4.9c-1.5-2.3-2.3-4.9-2.2-7.6
				c0-2.6,0.6-5.2,1.8-7.5C4.1,14.7,9,11.9,14.3,12c2.6-0.1,5.2,0.6,7.5,1.8c2,1.2,3.6,2.9,4.7,4.9c1.1,2.2,1.6,4.6,1.6,7
				c0,0.4,0,0.8-0.1,1.2l0,0c-0.1,0.7-0.7,1.2-1.4,1.2H4.4c0.1,1.9,0.7,3.7,1.9,5.2c1.2,1.4,2.7,2.5,4.4,3.2
				c1.9,0.7,3.9,1.1,5.9,1.1h6.5c0.3,0,0.6,0.1,0.9,0.3s0.4,0.5,0.4,0.8v1c0,0.3-0.1,0.6-0.4,0.8c-0.2,0.2-0.5,0.3-0.9,0.3L16.9,41z
				 M4.4,25.4h18.3c0.3,0,0.6-0.1,0.8-0.3c0.2-0.2,0.3-0.5,0.3-0.8c0-0.4-0.1-0.9-0.2-1.3c-0.2-0.9-0.5-1.8-0.9-2.7
				c-0.4-0.9-1-1.7-1.7-2.4c-0.8-0.8-1.7-1.4-2.8-1.8c-1.3-0.5-2.7-0.7-4.1-0.7c-1.4,0-2.8,0.3-4.1,0.9c-1.2,0.6-2.2,1.4-3.1,2.4
				c-0.8,1-1.5,2.1-1.9,3.2C4.6,22.9,4.4,24.2,4.4,25.4L4.4,25.4z"/>
			<path id="Path" class="st0" d="M47,42c-1.1,0-2.2-0.3-3.1-1c-1-0.8-1.7-1.7-2.2-2.9l-9.7-23.5c-0.1-0.4-0.1-0.8,0.2-1.1
				c0.2-0.3,0.6-0.5,1.1-0.5h1.8c0.5,0,1,0.3,1.2,0.8l9.2,23c0.2,0.4,0.4,0.7,0.7,1.1c0.2,0.2,0.5,0.3,0.8,0.3
				c0.3,0,0.6-0.1,0.7-0.3c0.3-0.3,0.5-0.7,0.6-1.1l9.3-23.1c0.2-0.5,0.7-0.8,1.2-0.8h1.8c0.4,0,0.8,0.2,1,0.5
				c0.2,0.3,0.3,0.8,0.1,1.1l-9.8,23.6c-0.4,1.1-1.1,2.1-2.1,2.8C49.1,41.7,48.1,42,47,42L47,42z"/>
			<path class="st0" d="M94.9,19.4C94.9,19.3,94.9,19.3,94.9,19.4c-0.8,1.2-1.8,2.4-2.9,3.3c1.2,3.3,1,7-0.7,10.2
				c-0.9,1.7-2.3,3.2-4,4.2c-1.8,1-3.8,1.6-5.9,1.5c-2.1,0-4.1-0.5-5.9-1.5c-1.7-1-3-2.4-4-4.2c-1.9-3.7-1.9-8.1,0-11.8
				c0.9-1.7,2.3-3.2,4-4.2c2.5-1.4,5.4-1.8,8.2-1.3c0.5-1,1.2-2,2-2.9C84,12.2,82.6,12,81.5,12c-2.8-0.1-5.6,0.6-8,2
				c-2.3,1.3-4.2,3.1-5.5,5.4c-2.6,4.7-2.6,10.5,0,15.2c1.3,2.3,3.2,4.1,5.5,5.4c2.4,1.4,5.2,2,8,2c2.8,0.1,5.5-0.6,8-2
				c3.5-2,6-5.3,7.1-9.2C97.5,27,97,22.8,94.9,19.4z"/>
			<path id="Path_1_" class="st0" d="M104,39.8V1.2c0-0.7,0.6-1.2,1.2-1.2h1.5c0.7,0,1.2,0.5,1.2,1.2v38.5c0,0.7-0.6,1.2-1.2,1.2
				h-1.5c-0.3,0-0.7-0.1-0.9-0.3C104.2,40.4,104,40.1,104,39.8L104,39.8z"/>
			<path id="Path_2_" class="st0" d="M130,42c-1.1,0-2.2-0.3-3.1-1c-1-0.8-1.7-1.7-2.1-2.9l-9.7-23.5c-0.1-0.4-0.1-0.8,0.1-1.1
				c0.2-0.3,0.6-0.5,1-0.5h1.8c0.5,0,1,0.3,1.2,0.8l9.2,23c0.2,0.4,0.4,0.7,0.7,1.1c0.2,0.2,0.5,0.3,0.8,0.3c0.3,0,0.5-0.1,0.7-0.3
				c0.3-0.3,0.5-0.7,0.6-1.1l9.3-23c0.2-0.5,0.7-0.8,1.2-0.8h1.8c0.4,0,0.8,0.2,1,0.5c0.2,0.3,0.3,0.8,0.1,1.1l-9.8,23.6
				c-0.4,1.1-1.1,2.1-2.1,2.8C132.2,41.7,131.1,42,130,42z"/>
			<path id="Shape_2_" class="st0" d="M163.9,41c-3,0.1-5.9-0.5-8.6-1.7c-2.4-1-4.5-2.7-6-4.9c-1.5-2.3-2.3-4.9-2.2-7.6
				c0-2.6,0.6-5.2,1.8-7.5c2.4-4.6,7.2-7.5,12.5-7.4c2.6-0.1,5.2,0.6,7.5,1.8c2,1.2,3.6,2.9,4.7,4.9c1.1,2.2,1.6,4.6,1.6,7
				c0,0.4,0,0.8-0.1,1.2l0,0c-0.1,0.7-0.7,1.2-1.4,1.2h-22.2c0,1.9,0.7,3.7,1.9,5.2c1.2,1.4,2.7,2.5,4.5,3.2
				c1.9,0.7,3.9,1.1,5.9,1.1h6.7c0.7,0,1.2,0.5,1.3,1.2v1c0,0.7-0.6,1.2-1.3,1.2L163.9,41z M151.4,25.4h18.1c0.4,0,0.7-0.1,0.9-0.4
				s0.4-0.6,0.3-1c0-0.4-0.1-0.7-0.2-1.1c-0.2-0.9-0.4-1.8-0.9-2.7c-0.4-0.9-1-1.7-1.7-2.4c-0.8-0.8-1.7-1.4-2.8-1.8
				c-1.3-0.5-2.7-0.7-4.1-0.7c-1.4,0-2.8,0.3-4.1,0.9c-1.2,0.6-2.2,1.4-3.1,2.4C152.4,20.5,151.5,22.9,151.4,25.4L151.4,25.4z"/>
			<path id="Path_3_" class="st1" d="M77.7,38c-0.6-1.2-1-2.5-1-3.9c0-1.3,0.9-2.6,2.3-3c-1,0.6-1.8,1.5-2,2.6
				c0.4-0.4,1-0.6,1.5-0.7c0.9-0.1,1.9-1.1,2.2-2.3C81,30.2,81,29.6,81,29c0,0-0.3,0.7-0.9,0.8c-0.4,0-0.8,0-1.2,0
				c-1.2,0.1-2.2,1-2.4,2c-0.9,3.7-0.4,5.7-0.4,5.7c0.3,0.1,0.6,0.2,0.7,0.2C77,37.8,77.3,37.9,77.7,38z"/>
			<path id="Path_4_" class="st1" d="M87.7,36.5c0,0-1.9-4.4-2-11.6s5.4-9.4,5.4-9.4s-3.7,2.3-4.8,8.2c0.9-1.1,2.3-1.9,3.7-2.1
				c2.2-0.2,4.6-3.5,5.4-7.1c0.8-3.6,0.5-5.6,0.5-5.6s-0.7,2.3-2.1,2.4s-5-0.6-7.9,3.1s-1.6,10.3-1.6,10.3s-1.4-3.6-6.3-3
				c0,0,0.3,4.1,5.4,5.3c0,0-0.5-2.6-2.4-3.4c0,0,1.1-1,3,3.4s0.5,11,0.5,11c0.8-0.2,1.3-0.4,1.7-0.6C86.5,37.2,87,36.9,87.7,36.5z"
				/>
			<path id="Path_5_" class="st1" d="M76.1,36c0,0-0.1-1-0.7-1c-0.7,0-1.9,0.1-2.2-1.9c0.9-0.4,1.9,0.1,2.3,1.1
				c0.7,1.8,0.7,0.9,0.7,0.9"/>
		</g>
	</g>
</g>
</svg>
