<?xml version="1.0" encoding="utf-8"?>
<!-- Generator: Adobe Illustrator 24.1.0, SVG Export Plug-In . SVG Version: 6.00 Build 0)  -->
<svg version="1.1" id="Layer_1" xmlns="http://www.w3.org/2000/svg" xmlns:xlink="http://www.w3.org/1999/xlink" x="0px" y="0px"
	 viewBox="0 0 40.4 44.2" style="enable-background:new 0 0 40.4 44.2;" xml:space="preserve">
<style type="text/css">
	.st0{fill:#646464;}
	.st1{fill:#1F7D3B;}
</style>
<desc>Created with Sketch.</desc>
<g id="Page-1">
	<g id="A4" transform="translate(-404.000000, -668.000000)">
		<g id="Evolve-logo-01-Copy-5" transform="translate(404.000000, 668.000000)">
			<path id="Shape" class="st0" d="M-124.3,92.9c-3,0.1-5.9-0.5-8.6-1.7c-2.4-1-4.5-2.7-6-4.9c-1.5-2.3-2.3-4.9-2.2-7.6
				c0-2.6,0.6-5.2,1.8-7.5c2.4-4.6,7.2-7.5,12.5-7.4c2.6-0.1,5.2,0.6,7.5,1.8c2,1.2,3.6,2.9,4.7,4.9c1.1,2.2,1.6,4.6,1.6,7
				c0,0.4,0,0.8-0.1,1.2l0,0c-0.1,0.7-0.7,1.2-1.4,1.2h-22.2c0.1,1.9,0.7,3.7,1.9,5.2c1.2,1.4,2.7,2.5,4.4,3.2
				c1.9,0.7,3.9,1.1,5.9,1.1h6.5c0.3,0,0.6,0.1,0.9,0.3s0.4,0.5,0.4,0.8v1c0,0.3-0.1,0.6-0.4,0.8c-0.2,0.2-0.5,0.3-0.9,0.3
				L-124.3,92.9z M-136.8,77.3h18.3c0.3,0,0.6-0.1,0.8-0.3c0.2-0.2,0.3-0.5,0.3-0.8c0-0.4-0.1-0.9-0.2-1.3c-0.2-0.9-0.5-1.8-0.9-2.7
				c-0.4-0.9-1-1.7-1.7-2.4c-0.8-0.8-1.7-1.4-2.8-1.8c-1.3-0.5-2.7-0.7-4.1-0.7c-1.4,0-2.8,0.3-4.1,0.9c-1.2,0.6-2.2,1.4-3.1,2.4
				c-0.8,1-1.5,2.1-1.9,3.2C-136.5,74.9-136.7,76.1-136.8,77.3L-136.8,77.3z"/>
			<path id="Path" class="st0" d="M-94.1,93.9c-1.1,0-2.2-0.3-3.1-1c-1-0.8-1.7-1.7-2.2-2.9l-9.7-23.5c-0.1-0.4-0.1-0.8,0.2-1.1
				c0.2-0.3,0.6-0.5,1.1-0.5h1.8c0.5,0,1,0.3,1.2,0.8l9.2,23c0.2,0.4,0.4,0.7,0.7,1.1c0.2,0.2,0.5,0.3,0.8,0.3
				c0.3,0,0.6-0.1,0.7-0.3c0.3-0.3,0.5-0.7,0.6-1.1l9.3-23.1c0.2-0.5,0.7-0.8,1.2-0.8h1.8c0.4,0,0.8,0.2,1,0.5
				c0.2,0.3,0.3,0.8,0.1,1.1L-89,90.1c-0.4,1.1-1.1,2.1-2.1,2.8C-92,93.6-93,93.9-94.1,93.9L-94.1,93.9z"/>
			<path class="st0" d="M-46.2,71.3C-46.2,71.3-46.2,71.2-46.2,71.3c-0.8,1.2-1.8,2.4-2.9,3.3c1.2,3.3,1,7-0.7,10.2
				c-0.9,1.7-2.3,3.2-4,4.2c-1.8,1-3.8,1.6-5.9,1.5c-2.1,0-4.1-0.5-5.9-1.5c-1.7-1-3-2.4-4-4.2c-1.9-3.7-1.9-8.1,0-11.8
				c0.9-1.7,2.3-3.2,4-4.2c2.5-1.4,5.4-1.8,8.2-1.3c0.5-1,1.2-2,2-2.9c-1.7-0.5-3.1-0.7-4.3-0.7c-2.8-0.1-5.6,0.6-8,2
				c-2.3,1.3-4.2,3.1-5.5,5.4c-2.6,4.7-2.6,10.5,0,15.2c1.3,2.3,3.2,4.1,5.5,5.4c2.4,1.4,5.2,2,8,2c2.8,0.1,5.5-0.6,8-2
				c3.5-2,6-5.3,7.1-9.2C-43.6,78.9-44.2,74.7-46.2,71.3z"/>
			<path id="Path_1_" class="st0" d="M-37.1,91.7V53.1c0-0.7,0.6-1.2,1.2-1.2h1.5c0.7,0,1.2,0.5,1.2,1.2v38.5c0,0.7-0.6,1.2-1.2,1.2
				h-1.5c-0.3,0-0.7-0.1-0.9-0.3C-37,92.3-37.1,92-37.1,91.7L-37.1,91.7z"/>
			<path id="Path_2_" class="st0" d="M-11.1,93.9c-1.1,0-2.2-0.3-3.1-1c-1-0.8-1.7-1.7-2.1-2.9L-26,66.6c-0.1-0.4-0.1-0.8,0.1-1.1
				c0.2-0.3,0.6-0.5,1-0.5h1.8c0.5,0,1,0.3,1.2,0.8l9.2,23c0.2,0.4,0.4,0.7,0.7,1.1c0.2,0.2,0.5,0.3,0.8,0.3c0.3,0,0.5-0.1,0.7-0.3
				c0.3-0.3,0.5-0.7,0.6-1.1l9.3-23c0.2-0.5,0.7-0.8,1.2-0.8h1.8c0.4,0,0.8,0.2,1,0.5c0.2,0.3,0.3,0.8,0.1,1.1L-6,90.1
				c-0.4,1.1-1.1,2.1-2.1,2.8C-8.9,93.6-10,93.9-11.1,93.9z"/>
			<path id="Shape_2_" class="st0" d="M22.8,92.9c-3,0.1-5.9-0.5-8.6-1.7c-2.4-1-4.5-2.7-6-4.9c-1.5-2.3-2.3-4.9-2.2-7.6
				c0-2.6,0.6-5.2,1.8-7.5c2.4-4.6,7.2-7.5,12.5-7.4c2.6-0.1,5.2,0.6,7.5,1.8c2,1.2,3.6,2.9,4.7,4.9c1.1,2.2,1.6,4.6,1.6,7
				c0,0.4,0,0.8-0.1,1.2l0,0c-0.1,0.7-0.7,1.2-1.4,1.2H10.3c0,1.9,0.7,3.7,1.9,5.2c1.2,1.4,2.7,2.5,4.5,3.2c1.9,0.7,3.9,1.1,5.9,1.1
				h6.7c0.7,0,1.2,0.5,1.3,1.2v1c0,0.7-0.6,1.2-1.3,1.2L22.8,92.9z M10.3,77.3h18.1c0.4,0,0.7-0.1,0.9-0.4c0.2-0.3,0.4-0.6,0.3-1
				c0-0.4-0.1-0.7-0.2-1.1c-0.2-0.9-0.4-1.8-0.9-2.7c-0.4-0.9-1-1.7-1.7-2.4c-0.8-0.8-1.7-1.4-2.8-1.8c-1.3-0.5-2.7-0.7-4.1-0.7
				c-1.4,0-2.8,0.3-4.1,0.9c-1.2,0.6-2.2,1.4-3.1,2.4C11.3,72.4,10.4,74.8,10.3,77.3L10.3,77.3z"/>
			<path id="Path_3_" class="st1" d="M-63.4,89.9c-0.6-1.2-1-2.5-1-3.9c0-1.3,0.9-2.6,2.3-3c-1,0.6-1.8,1.5-2,2.6
				c0.4-0.4,1-0.6,1.5-0.7c0.9-0.1,1.9-1.1,2.2-2.3c0.2-0.6,0.3-1.2,0.2-1.8c0,0-0.3,0.7-0.9,0.8c-0.4,0-0.8,0-1.2,0
				c-1.2,0.1-2.2,1-2.4,2c-0.9,3.7-0.4,5.7-0.4,5.7c0.3,0.1,0.6,0.2,0.7,0.2C-64.1,89.7-63.8,89.8-63.4,89.9z"/>
			<path id="Path_4_" class="st1" d="M-53.4,88.4c0,0-1.9-4.4-2-11.6c-0.1-7.2,5.4-9.4,5.4-9.4s-3.7,2.3-4.8,8.2
				c0.9-1.1,2.3-1.9,3.7-2.1c2.2-0.2,4.6-3.5,5.4-7.1c0.8-3.6,0.5-5.6,0.5-5.6s-0.7,2.3-2.1,2.4c-1.4,0-5-0.6-7.9,3.1
				c-2.9,3.7-1.6,10.3-1.6,10.3s-1.4-3.6-6.3-3c0,0,0.3,4.1,5.4,5.3c0,0-0.5-2.6-2.4-3.4c0,0,1.1-1,3,3.4s0.5,11,0.5,11
				c0.8-0.2,1.3-0.4,1.7-0.6C-54.6,89.1-54.1,88.8-53.4,88.4z"/>
			<path id="Path_5_" class="st1" d="M-65,87.9c0,0-0.1-1-0.7-1c-0.7,0-1.9,0.1-2.2-1.9c0.9-0.4,1.9,0.1,2.3,1.1
				C-65,87.9-65,87-65,87"/>
		</g>
	</g>
</g>
<g id="Page-1_1_">
	<g id="A4_1_" transform="translate(-404.000000, -668.000000)">
		<g id="Evolve-logo-01-Copy-5_1_" transform="translate(404.000000, 668.000000)">
			<path class="st0" d="M33.3,17.2C33.3,17.2,33.3,17.2,33.3,17.2c-0.8,1.2-1.8,2.4-2.9,3.3c1.2,3.3,1,7-0.7,10.2
				c-0.9,1.7-2.3,3.2-4,4.2c-1.8,1-3.8,1.6-5.9,1.5c-2.1,0-4.1-0.5-5.9-1.5c-1.7-1-3-2.4-4-4.2c-1.9-3.7-1.9-8.1,0-11.8
				c0.9-1.7,2.3-3.2,4-4.2c2.5-1.4,5.4-1.8,8.2-1.3c0.5-1,1.2-2,2-2.9c-1.7-0.5-3.1-0.7-4.3-0.7c-2.8-0.1-5.6,0.6-8,2
				c-2.3,1.3-4.2,3.1-5.5,5.4c-2.6,4.7-2.6,10.5,0,15.2c1.3,2.3,3.2,4.1,5.5,5.4c2.4,1.4,5.2,2,8,2c2.8,0.1,5.5-0.6,8-2
				c3.5-2,6-5.3,7.1-9.2C35.9,24.8,35.3,20.7,33.3,17.2z"/>
			<path id="Path_8_" class="st1" d="M16.1,35.9c-0.6-1.2-1-2.5-1-3.9c0-1.3,0.9-2.6,2.3-3c-1,0.6-1.8,1.5-2,2.6
				c0.4-0.4,1-0.6,1.5-0.7c0.9-0.1,1.9-1.1,2.2-2.3c0.2-0.6,0.3-1.2,0.2-1.8c0,0-0.3,0.7-0.9,0.8c-0.4,0-0.8,0-1.2,0
				c-1.2,0.1-2.2,1-2.4,2c-0.9,3.7-0.4,5.7-0.4,5.7c0.3,0.1,0.6,0.2,0.7,0.2C15.4,35.7,15.7,35.8,16.1,35.9z"/>
			<path id="Path_7_" class="st1" d="M26.1,34.4c0,0-1.9-4.4-2-11.6s5.4-9.4,5.4-9.4s-3.7,2.3-4.8,8.2c0.9-1.1,2.3-1.9,3.7-2.1
				c2.2-0.2,4.6-3.5,5.4-7.1c0.8-3.6,0.5-5.6,0.5-5.6s-0.7,2.3-2.1,2.4c-1.4,0-5-0.6-7.9,3.1s-1.6,10.3-1.6,10.3s-1.4-3.6-6.3-3
				c0,0,0.3,4.1,5.4,5.3c0,0-0.5-2.6-2.4-3.4c0,0,1.1-1,3,3.4s0.5,11,0.5,11c0.8-0.2,1.3-0.4,1.7-0.6C24.9,35.1,25.4,34.8,26.1,34.4
				z"/>
			<path id="Path_6_" class="st1" d="M14.5,33.9c0,0-0.1-1-0.7-1c-0.7,0-1.9,0.1-2.2-1.9c0.9-0.4,1.9,0.1,2.3,1.1
				c0.7,1.8,0.7,0.9,0.7,0.9"/>
		</g>
	</g>
</g>
</svg>
